:version 1.10
:name ASF
:units
  mass 1
  length 1
  angle deg
:documentation
  ASF file generated by Kaydara
:root
  axis xyz
  order  tx ty tz rx ry rz
  position 0 0 0
  orientation 0 0 0
:bonedata
  begin
    id 1
    name RightUpLegDummy
    direction -0.65628 -0.754516 0.00165102
    length 4.76918
    axis 0 0 0 xyz
  end
  begin
    id 2
    name RightUpLeg
    direction -0.145584 -0.923362 0.355256
    length 17.9961
    axis -24.7611 -13.1006 1.78531 xyz
    dof rx ry rz
  end
  begin
    id 3
    name RightLeg
    direction 0.263379 0.172355 -0.949171
    length 13.3386
    axis 89.6202 -21.1929 12.3855 xyz
    dof rx ry rz
  end
  begin
    id 4
    name RightFoot
    direction 0.224283 -0.968777 -0.105675
    length 5.86697
    axis 56.995 -39.6905 17.3365 xyz
    dof rx ry rz
  end
  begin
    id 5
    name RightToes
    direction -0.0806345 -0.9037 0.420506
    length 4.75197
    axis 146.825 -39.7828 17.6019 xyz
    dof rx ry rz
  end
  begin
    id 6
    name SpineDummy
    direction -3.39852e-014 1 9.33296e-014
    length 8.13779
    axis 0 0 0 xyz
  end
  begin
    id 7
    name Spine
    direction -0.156609 0.733703 0.661176
    length 7.14978
    axis 41.2365 5.68757 17.0844 xyz
    dof rx ry rz
  end
  begin
    id 8
    name Spine1
    direction 0 0 0
    length 0
    axis 42.8809 47.8308 -3.36039 xyz
    dof rx ry rz
  end
  begin
    id 9
    name HEadDummy
    direction 0.546431 0.701947 0.456819
    length 3.55512
    axis 42.8809 47.8308 -3.36039 xyz
  end
  begin
    id 10
    name HEad
    direction 0.23444 0.828559 0.508457
    length 7.35827
    axis 51.1864 49.2662 27.4903 xyz
    dof rx ry rz
  end
  begin
    id 11
    name LeftShoulder1Dummy
    direction 0.431183 0.475873 -0.766568
    length 2.49352
    axis 42.8809 47.8308 -3.36039 xyz
  end
  begin
    id 12
    name LeftShoulder1
    direction 0.268187 -0.383402 -0.883786
    length 4.48604
    axis -119.517 0.106469 35.1736 xyz
    dof rx ry rz
  end
  begin
    id 13
    name LeftArm
    direction 0.380567 -0.703221 -0.600541
    length 10.1142
    axis -5.41825 36.2925 7.8293 xyz
    dof rx ry rz
  end
  begin
    id 14
    name LeftForeArm
    direction 0.541071 -0.732356 -0.413396
    length 9.39839
    axis 4.65387 33.7604 7.81644 xyz
    dof rx ry rz
  end
  begin
    id 15
    name LeftHand
    direction 0.847511 -0.389379 -0.360707
    length 3.66142
    axis 7.65593 21.1436 -24.6758 xyz
    dof rx ry rz
  end
  begin
    id 16
    name RightShoulderDummy
    direction -0.692546 0.541855 0.476208
    length 2.49352
    axis 42.8809 47.8308 -3.36039 xyz
  end
  begin
    id 17
    name RightShoulder
    direction -0.870808 -0.316653 0.376065
    length 4.48602
    axis 141.571 51.133 -100.254 xyz
    dof rx ry rz
  end
  begin
    id 18
    name RightArm
    direction 0.366897 -0.87275 0.322015
    length 10.1142
    axis 92.3258 71.2036 138.917 xyz
    dof rx ry rz
  end
  begin
    id 19
    name RightForeArm
    direction 0.702487 -0.694568 0.155197
    length 9.39835
    axis 153.863 41.5092 -176.604 xyz
    dof rx ry rz
  end
  begin
    id 20
    name RightHand
    direction 0.79502 -0.601276 0.0800636
    length 3.66142
    axis 154.247 4.59222 142.9 xyz
    dof rx ry rz
  end
  begin
    id 21
    name LeftUpLegDummy
    direction 0.65628 -0.754516 0.00165102
    length 4.76919
    axis 0 0 0 xyz
  end
  begin
    id 22
    name LeftUpLeg
    direction -0.1277 -0.689368 0.713067
    length 17.9961
    axis -48.3385 -17.8675 0.791927 xyz
    dof rx ry rz
  end
  begin
    id 23
    name LeftLeg
    direction 0.109849 -0.991246 -0.0732378
    length 13.3386
    axis -2.05791 -7.30784 1.72042 xyz
    dof rx ry rz
  end
  begin
    id 24
    name LeftFoot
    direction 0.0448355 -0.272614 0.961078
    length 5.86697
    axis -18.7733 -7.89606 10.2113 xyz
    dof rx ry rz
  end
  begin
    id 25
    name LeftToes
    direction -0.18506 0.293668 0.937823
    length 4.75197
    axis 71.2267 -7.89606 10.2113 xyz
    dof rx ry rz
  end
:hierarchy
  begin
    root RightUpLegDummy SpineDummy LeftUpLegDummy
    RightUpLegDummy RightUpLeg
    RightUpLeg RightLeg
    RightLeg RightFoot
    RightFoot RightToes
    SpineDummy Spine
    Spine Spine1
    Spine1 HEadDummy LeftShoulder1Dummy RightShoulderDummy
    HEadDummy HEad
    LeftShoulder1Dummy LeftShoulder1
    LeftShoulder1 LeftArm
    LeftArm LeftForeArm
    LeftForeArm LeftHand
    RightShoulderDummy RightShoulder
    RightShoulder RightArm
    RightArm RightForeArm
    RightForeArm RightHand
    LeftUpLegDummy LeftUpLeg
    LeftUpLeg LeftLeg
    LeftLeg LeftFoot
    LeftFoot LeftToes
  end

:SAMPLES-PER-SECOND 30
:FULLY-SPECIFIED
:DEGREES
127
root  1.37526 38.0767 37.3016 -12.0757 -1.15859 3.2482
RightUpLeg  2.56928 21.6003 2.56332
RightLeg  -92.6174 -11.9371 0.742627
RightFoot  32.4209 5.8001 -18.8266
RightToes  -1.27222e-014 -6.36111e-015 6.36111e-015
Spine  -30.2343 -25.7575 -12.0917
Spine1  3.49838 -21.3509 66.4147
HEad  3.77013 15.1291 -29.0671
LeftShoulder1  6.36111e-015 -1.33558e-015 6.49777e-015
LeftArm  13.8141 -27.3012 -43.3398
LeftForeArm  -15.2975 -40.1699 7.83711
LeftHand  -0.559723 0.136733 -7.28837
RightShoulder  -4.77083e-015 -6.36111e-015 -3.18055e-015
RightArm  55.1539 -37.0531 -29.1133
RightForeArm  -27.1063 -4.02778 -13.4065
RightHand  0.832766 1.51166 -9.28001
LeftUpLeg  63.3437 21.9758 17.3295
LeftLeg  -13.6721 -1.66548 -1.81674
LeftFoot  -9.8022 2.99665 -14.3358
LeftToes  9.54166e-015 4.2066e-011 -8.07781e-011
128
root  1.24718 37.5925 38.3257 -12.0315 -6.26594 3.46866
RightUpLeg  -0.351183 21.9016 4.19301
RightLeg  -83.6074 -12.6673 -0.4179
RightFoot  27.3499 5.80819 -18.286
RightToes  -1.27222e-014 -6.36111e-015 6.36111e-015
Spine  -29.375 -22.6162 -9.49484
Spine1  5.1082 -20.32 62.6933
HEad  1.06466 16.3655 -31.2093
LeftShoulder1  6.36111e-015 -1.33558e-015 6.49777e-015
LeftArm  19.5872 -23.1021 -45.8745
LeftForeArm  -12.7482 -36.954 5.47623
LeftHand  -0.57005 0.301938 -8.0413
RightShoulder  -4.77083e-015 -6.36111e-015 -3.18055e-015
RightArm  44.4424 -33.3833 -19.3637
RightForeArm  -26.3018 -3.95991 -13.2936
RightHand  0.716847 2.37722 -10.2402
LeftUpLeg  59.0675 23.354 18.3999
LeftLeg  -0.263503 2.90629 0.148789
LeftFoot  -5.88924 4.49804 -18.4184
LeftToes  9.54166e-015 4.2066e-011 -8.07781e-011
129
root  0.99633 37.1782 39.3901 -11.848 -8.47885 3.21875
RightUpLeg  -2.20287 20.3751 4.64236
RightLeg  -77.4604 -13.5266 0.351534
RightFoot  22.5647 5.12523 -16.6929
RightToes  -1.27222e-014 -6.36111e-015 6.36111e-015
Spine  -29.0729 -19.8875 -5.92866
Spine1  6.66976 -19.5812 59.6049
HEad  0.192696 16.4012 -30.5845
LeftShoulder1  6.36111e-015 -1.33558e-015 6.49777e-015
LeftArm  30.0112 -21.3632 -51.8957
LeftForeArm  -10.0539 -32.1333 2.88855
LeftHand  -0.740527 0.0670858 -9.23851
RightShoulder  -4.77083e-015 -6.36111e-015 -3.18055e-015
RightArm  36.0767 -30.8053 -11.6759
RightForeArm  -25.5759 -1.34866 -14.7423
RightHand  0.417135 3.35167 -9.86175
LeftUpLeg  52.2594 23.1056 19.0379
LeftLeg  14.6208 4.28449 3.33093
LeftFoot  6.44163 5.41997 -15.1031
LeftToes  9.54166e-015 4.2066e-011 -8.07781e-011
130
root  0.656277 36.6313 40.4339 -12.6149 -8.77232 1.702
RightUpLeg  -2.30255 16.8422 5.33976
RightLeg  -71.4822 -13.9795 -0.093097
RightFoot  20.3165 3.97478 -14.5826
RightToes  -1.27222e-014 -6.36111e-015 6.36111e-015
Spine  -28.2977 -16.9619 -1.92069
Spine1  8.20189 -18.6315 57.5137
HEad  -0.416672 15.3362 -29.2343
LeftShoulder1  6.36111e-015 -1.33558e-015 6.49777e-015
LeftArm  40.9277 -19.2343 -59.1619
LeftForeArm  -8.02858 -28.3906 1.30307
LeftHand  -1.01315 -0.511006 -10.5502
RightShoulder  -4.77083e-015 -6.36111e-015 -3.18055e-015
RightArm  29.938 -28.2667 -6.26344
RightForeArm  -26.1459 2.48871 -17.3986
RightHand  0.236761 3.60338 -8.72782
LeftUpLeg  46.1117 20.7408 20.3802
LeftLeg  27.8249 3.66098 5.85081
LeftFoot  16.4297 4.23306 -9.2982
LeftToes  9.54166e-015 4.2066e-011 -8.07781e-011
131
root  0.275198 36.2289 41.5233 -14.1688 -9.79653 -0.298979
RightUpLeg  -0.0775883 13.5204 6.95223
RightLeg  -66.6835 -13.2515 -2.16659
RightFoot  18.2705 3.71405 -13.7667
RightToes  -1.27222e-014 -6.36111e-015 6.36111e-015
Spine  -27.4866 -14.0099 0.659824
Spine1  10.3114 -17.1757 55.4836
HEad  -2.23247 14.2165 -29.2753
LeftShoulder1  6.36111e-015 -1.33558e-015 6.49777e-015
LeftArm  46.4876 -14.6498 -62.4206
LeftForeArm  -6.15105 -27.2045 0.606802
LeftHand  -1.10939 -0.685273 -11.1776
RightShoulder  -4.77083e-015 -6.36111e-015 -3.18055e-015
RightArm  25.7993 -23.3825 -2.48097
RightForeArm  -27.8158 4.82847 -19.592
RightHand  0.410101 2.91943 -8.72499
LeftUpLeg  42.4669 18.0615 23.8046
LeftLeg  36.8627 3.33066 7.83187
LeftFoot  16.5778 3.31043 -7.27333
LeftToes  9.54166e-015 4.2066e-011 -8.07781e-011
132
root  -0.110963 36.2382 42.7081 -15.1752 -11.0106 -1.59846
RightUpLeg  3.17274 11.5453 8.2697
RightLeg  -64.6505 -12.4156 -3.67573
RightFoot  14.5259 4.24079 -13.8416
RightToes  -1.27222e-014 -6.36111e-015 6.36111e-015
Spine  -28.2068 -11.5575 1.45091
Spine1  12.8537 -15.5444 53.3918
HEad  -3.95941 13.2146 -29.6863
LeftShoulder1  6.36111e-015 -1.33558e-015 6.49777e-015
LeftArm  46.4668 -8.34106 -60.3397
LeftForeArm  -4.88452 -26.8883 0.262576
LeftHand  -0.94079 -0.101181 -11.1347
RightShoulder  -4.77083e-015 -6.36111e-015 -3.18055e-015
RightArm  24.1832 -17.5317 -0.604967
RightForeArm  -29.1563 5.03639 -20.1997
RightHand  0.731871 2.09511 -9.71379
LeftUpLeg  39.3859 16.1901 27.0147
LeftLeg  40.1182 2.62712 8.0045
LeftFoot  11.9721 3.2944 -8.03153
LeftToes  9.54166e-015 4.2066e-011 -8.07781e-011
133
root  -0.493251 36.6574 43.9823 -15.21 -10.2417 -2.20144
RightUpLeg  6.75522 10.0943 8.28714
RightLeg  -65.8754 -12.2765 -3.88001
RightFoot  11.232 4.21698 -13.0517
RightToes  -1.27222e-014 -6.36111e-015 6.36111e-015
Spine  -30.4185 -9.60989 1.49609
Spine1  14.0151 -14.0042 51.5861
HEad  -3.11495 11.2604 -28.2628
LeftShoulder1  6.36111e-015 -1.33558e-015 6.49777e-015
LeftArm  44.9214 -1.57286 -55.4132
LeftForeArm  -4.78187 -26.2775 0.118244
LeftHand  -0.767924 0.440586 -10.9015
RightShoulder  -4.77083e-015 -6.36111e-015 -3.18055e-015
RightArm  25.2529 -14.6986 -0.956276
RightForeArm  -29.131 4.43155 -19.7296
RightHand  0.729548 2.02443 -9.53261
LeftUpLeg  35.3396 14.9633 27.2878
LeftLeg  37.508 1.8233 6.51599
LeftFoot  9.83099 3.38105 -8.67523
LeftToes  9.54166e-015 4.2066e-011 -8.07781e-011
134
root  -0.87435 37.3081 45.2882 -14.8744 -7.53266 -2.75593
RightUpLeg  11.033 8.33674 7.63623
RightLeg  -69.7719 -12.4559 -3.4149
RightFoot  10.4653 3.51646 -11.5643
RightToes  -1.27222e-014 -6.36111e-015 6.36111e-015
Spine  -32.4143 -7.88596 1.29995
Spine1  12.5368 -12.4585 49.8765
HEad  0.684681 7.42967 -25.1335
LeftShoulder1  6.36111e-015 -1.33558e-015 6.49777e-015
LeftArm  44.1368 4.63065 -49.2489
LeftForeArm  -5.25371 -26.4739 0.258122
LeftHand  -0.809041 0.313874 -10.9619
RightShoulder  -4.77083e-015 -6.36111e-015 -3.18055e-015
RightArm  28.8385 -15.893 -3.4376
RightForeArm  -27.9697 3.87105 -18.9397
RightHand  0.349856 2.7097 -7.6755
LeftUpLeg  31.4717 13.9588 25.2559
LeftLeg  30.0422 1.80845 4.95362
LeftFoot  10.5216 3.27236 -8.25877
LeftToes  9.54166e-015 4.2066e-011 -8.07781e-011
135
root  -1.21646 37.9943 46.5815 -14.6001 -4.42343 -3.51357
RightUpLeg  15.879 6.07882 6.99058
RightLeg  -75.1634 -12.5167 -2.87265
RightFoot  10.6963 3.10803 -10.8741
RightToes  -1.27222e-014 -6.36111e-015 6.36111e-015
Spine  -33.8126 -6.1282 0.815333
Spine1  10.0778 -10.7436 48.3877
HEad  5.25926 2.09326 -22.29
LeftShoulder1  6.36111e-015 -1.33558e-015 6.49777e-015
LeftArm  44.151 9.444 -42.4883
LeftForeArm  -6.62557 -27.9744 0.888293
LeftHand  -1.00356 -0.352905 -11.0228
RightShoulder  -4.77083e-015 -6.36111e-015 -3.18055e-015
RightArm  34.4034 -18.3266 -6.89461
RightForeArm  -26.4769 2.86456 -17.7573
RightHand  0.04978 3.28239 -6.10758
LeftUpLeg  29.5979 13.5002 23.4795
LeftLeg  18.3867 1.45477 2.73621
LeftFoot  11.3755 3.42745 -8.47125
LeftToes  9.54166e-015 4.2066e-011 -8.07781e-011
136
root  -1.51815 38.6582 47.9158 -14.2216 -1.40749 -4.00875
RightUpLeg  20.8513 3.54541 5.88522
RightLeg  -81.6312 -12.3165 -2.55891
RightFoot  10.6014 3.2176 -11.0491
RightToes  -1.27222e-014 -6.36111e-015 6.36111e-015
Spine  -36.2263 -4.8639 -0.603723
Spine1  9.32418 -9.15254 47.3695
HEad  8.42624 -3.63405 -20.6012
LeftShoulder1  6.36111e-015 -1.33558e-015 6.49777e-015
LeftArm  44.6426 12.2313 -36.1141
LeftForeArm  -9.34526 -29.992 2.04662
LeftHand  -1.27853 -1.4275 -10.5574
RightShoulder  -4.77083e-015 -6.36111e-015 -3.18055e-015
RightArm  40.4962 -20.0247 -9.47663
RightForeArm  -24.8099 0.770931 -15.877
RightHand  0.0526017 3.19469 -5.93875
LeftUpLeg  30.0346 14.5749 23.0093
LeftLeg  3.09898 -1.87528 -0.188144
LeftFoot  12.3132 4.20978 -10.1552
LeftToes  9.54166e-015 4.2066e-011 -8.07781e-011
137
root  -1.79629 39.2056 49.278 -13.4271 1.59944 -4.24534
RightUpLeg  25.5155 1.65355 5.10226
RightLeg  -88.8088 -12.0023 -1.81647
RightFoot  11.6054 3.19289 -11.2832
RightToes  -1.27222e-014 -6.36111e-015 6.36111e-015
Spine  -39.962 -4.26901 -2.43141
Spine1  10.4937 -8.09126 45.6158
HEad  9.88555 -9.02179 -19.5079
LeftShoulder1  6.36111e-015 -1.33558e-015 6.49777e-015
LeftArm  45.5222 13.249 -30.2672
LeftForeArm  -12.704 -32.7753 3.79912
LeftHand  -1.59 -2.5802 -10.1579
RightShoulder  -4.77083e-015 -6.36111e-015 -3.18055e-015
RightArm  45.9473 -21.7714 -10.5304
RightForeArm  -22.9478 -2.0772 -13.657
RightHand  0.124277 2.92399 -6.03289
LeftUpLeg  31.8694 17.3935 23.7006
LeftLeg  -14.0441 -9.28841 -0.95104
LeftFoot  12.7131 5.45398 -12.996
LeftToes  9.54166e-015 4.2066e-011 -8.07781e-011
138
root  -1.99276 39.4217 50.5633 -12.4016 3.95201 -5.15068
RightUpLeg  29.2673 2.60709 7.65792
RightLeg  -94.9044 -10.9603 2.54711
RightFoot  13.8436 3.45288 -12.326
RightToes  -1.27222e-014 -6.36111e-015 6.36111e-015
Spine  -43.2866 -2.93637 -2.62232
Spine1  11.6843 -7.2879 42.0597
HEad  10.7128 -13.4696 -18.8209
LeftShoulder1  6.36111e-015 -1.33558e-015 6.49777e-015
LeftArm  46.7053 13.4626 -24.622
LeftForeArm  -16.5687 -36.5212 6.46498
LeftHand  -1.71021 -2.97759 -10.226
RightShoulder  -4.77083e-015 -6.36111e-015 -3.18055e-015
RightArm  50.7597 -24.1151 -10.3695
RightForeArm  -21.395 -4.78414 -11.8036
RightHand  0.000281565 3.05381 -5.12466
LeftUpLeg  33.5077 18.0025 23.5325
LeftLeg  -29.9451 -16.0677 0.7063
LeftFoot  12.4341 6.6974 -16.0214
LeftToes  9.54166e-015 4.2066e-011 -8.07781e-011
139
root  -2.0902 39.3162 51.7191 -11.6477 5.5748 -6.49316
RightUpLeg  31.4572 2.33265 10.3247
RightLeg  -97.7698 -10.5714 6.33532
RightFoot  14.9073 5.03403 -15.2764
RightToes  -1.27222e-014 -6.36111e-015 6.36111e-015
Spine  -44.883 -1.4494 -1.94925
Spine1  11.9829 -6.72239 38.5017
HEad  11.3038 -16.4226 -18.881
LeftShoulder1  6.36111e-015 -1.33558e-015 6.49777e-015
LeftArm  47.0897 13.8675 -20.1239
LeftForeArm  -20.1782 -39.6259 9.26468
LeftHand  -1.42027 -2.12995 -9.52923
RightShoulder  -4.77083e-015 -6.36111e-015 -3.18055e-015
RightArm  55.262 -25.8889 -8.78099
RightForeArm  -20.3461 -6.6339 -10.6416
RightHand  -0.236048 3.42866 -3.5882
LeftUpLeg  32.9413 13.076 19.2175
LeftLeg  -38.2782 -15.6613 0.438411
LeftFoot  14.2821 7.21884 -16.5227
LeftToes  9.54166e-015 4.2066e-011 -8.07781e-011
140
root  -2.15566 39.0063 52.7776 -11.5537 7.84976 -6.88573
RightUpLeg  32.468 0.275581 10.2178
RightLeg  -97.1513 -11.6223 7.92856
RightFoot  12.8785 6.29729 -17.1423
RightToes  -1.27222e-014 -6.36111e-015 6.36111e-015
Spine  -44.8992 -2.54812 -3.18005
Spine1  12.263 -6.90919 38.0178
HEad  10.5399 -18.2307 -19.3158
LeftShoulder1  6.36111e-015 -1.33558e-015 6.49777e-015
LeftArm  44.5441 14.8549 -18.56
LeftForeArm  -20.0979 -40.1673 9.55512
LeftHand  -0.768071 -0.494098 -7.37647
RightShoulder  -4.77083e-015 -6.36111e-015 -3.18055e-015
RightArm  58.9473 -26.349 -5.9501
RightForeArm  -19.002 -7.61097 -9.90269
RightHand  -0.307528 3.39768 -2.80745
LeftUpLeg  30.0569 12.6713 16.3231
LeftLeg  -35.036 -16.5926 3.1776
LeftFoot  18.4919 6.67434 -13.9292
LeftToes  9.54166e-015 4.2066e-011 -8.07781e-011
